<mxfile host="app.diagrams.net" modified="2024-04-19T08:02:37.872Z" agent="Mozilla/5.0 (Windows NT 10.0; Win64; x64) AppleWebKit/537.36 (KHTML, like Gecko) Chrome/124.0.0.0 Safari/537.36" version="24.2.5" etag="3wVfuE3ZyMZwq4en0wJl" type="github">
  <diagram name="Page-1" id="_KZDt4DxT069oqWsoZ_g">
    <mxGraphModel>
      <root>
        <mxCell id="0" />
        <mxCell id="1" parent="0" />
      </root>
    </mxGraphModel>
  </diagram>
</mxfile>
